<?xml version="1.0" encoding="UTF-8" standalone="no"?>
<!-- Created with Inkscape (http://www.inkscape.org/) -->

<svg
   xmlns:dc="http://purl.org/dc/elements/1.1/"
   xmlns:cc="http://creativecommons.org/ns#"
   xmlns:rdf="http://www.w3.org/1999/02/22-rdf-syntax-ns#"
   xmlns:svg="http://www.w3.org/2000/svg"
   xmlns="http://www.w3.org/2000/svg"
   xmlns:sodipodi="http://sodipodi.sourceforge.net/DTD/sodipodi-0.dtd"
   xmlns:inkscape="http://www.inkscape.org/namespaces/inkscape"
   width="297mm"
   height="180mm"
   viewBox="0 0 297 180"
   version="1.1"
   id="svg8"
   inkscape:version="0.92.1 r15371"
   sodipodi:docname="oop_vs_fp.svg">
  <defs
     id="defs2" />
  <sodipodi:namedview
     id="base"
     pagecolor="#ffffff"
     bordercolor="#666666"
     borderopacity="1.0"
     inkscape:pageopacity="0.0"
     inkscape:pageshadow="2"
     inkscape:zoom="0.7"
     inkscape:cx="663.2451"
     inkscape:cy="332.93942"
     inkscape:document-units="mm"
     inkscape:current-layer="layer1"
     showgrid="false"
     objecttolerance="3"
     inkscape:window-width="1920"
     inkscape:window-height="1147"
     inkscape:window-x="1592"
     inkscape:window-y="22"
     inkscape:window-maximized="1" />
  <metadata
     id="metadata5">
    <rdf:RDF>
      <cc:Work
         rdf:about="">
        <dc:format>image/svg+xml</dc:format>
        <dc:type
           rdf:resource="http://purl.org/dc/dcmitype/StillImage" />
        <dc:title />
      </cc:Work>
    </rdf:RDF>
  </metadata>
  <g
     inkscape:label="Layer 1"
     inkscape:groupmode="layer"
     id="layer1"
     transform="translate(0,-117)">
    <rect
       style="fill:#ffffff;fill-opacity:1;stroke:none;stroke-width:1;stroke-linecap:square;stroke-linejoin:round;stroke-miterlimit:4;stroke-dasharray:none;stroke-opacity:1"
       id="rect41"
       width="399.14285"
       height="238.50298"
       x="-61.610119"
       y="93.648811"
       ry="0.56504154" />
    <text
       xml:space="preserve"
       style="font-style:normal;font-weight:normal;font-size:16.31804657px;line-height:1.25;font-family:sans-serif;letter-spacing:0px;word-spacing:0px;fill:#000000;fill-opacity:1;stroke:none;stroke-width:0.40795115"
       x="64.450203"
       y="136.97279"
       id="text4487"><tspan
         sodipodi:role="line"
         id="tspan4485"
         x="64.450203"
         y="136.97279"
         style="stroke-width:0.40795115">OOP</tspan></text>
    <text
       id="text4491"
       y="135.32243"
       x="150.33739"
       style="font-style:normal;font-weight:normal;font-size:9.33159637px;line-height:1.25;font-family:sans-serif;letter-spacing:0px;word-spacing:0px;fill:#000000;fill-opacity:1;stroke:none;stroke-width:0.23328991"
       xml:space="preserve"><tspan
         style="stroke-width:0.23328991"
         y="135.32243"
         x="150.33739"
         id="tspan4489"
         sodipodi:role="line">VS</tspan></text>
    <text
       xml:space="preserve"
       style="font-style:normal;font-weight:normal;font-size:16.13831139px;line-height:1.25;font-family:sans-serif;letter-spacing:0px;word-spacing:0px;fill:#000000;fill-opacity:1;stroke:none;stroke-width:0.40345776"
       x="218.32162"
       y="136.73637"
       id="text4495"><tspan
         sodipodi:role="line"
         id="tspan4493"
         x="218.32162"
         y="136.73637"
         style="stroke-width:0.40345776">FP</tspan></text>
    <path
       style="fill:#aa0000;fill-opacity:1;stroke:none;stroke-width:0.18196614;stroke-linecap:square;stroke-linejoin:round;stroke-miterlimit:4;stroke-dasharray:none;stroke-opacity:1"
       id="path4499"
       sodipodi:type="arc"
       sodipodi:cx="44.610664"
       sodipodi:cy="213.26378"
       sodipodi:rx="10.831318"
       sodipodi:ry="10.831318"
       sodipodi:start="0.32773793"
       sodipodi:end="0.26108729"
       sodipodi:open="true"
       d="m 54.865463,216.7504 a 10.831318,10.831318 0 0 1 -13.570075,6.82485 10.831318,10.831318 0 0 1 -7.05,-13.45448 10.831318,10.831318 0 0 1 13.335143,-7.2732 10.831318,10.831318 0 0 1 7.494377,13.21211" />
    <path
       d="m 76.372227,182.01721 a 7.4986048,7.4986048 0 0 1 -9.394668,4.72489 7.4986048,7.4986048 0 0 1 -4.880769,-9.31463 7.4986048,7.4986048 0 0 1 9.232022,-5.0353 7.4986048,7.4986048 0 0 1 5.188415,9.14685"
       sodipodi:open="true"
       sodipodi:end="0.26108729"
       sodipodi:start="0.32773793"
       sodipodi:ry="7.4986048"
       sodipodi:rx="7.4986048"
       sodipodi:cy="179.60339"
       sodipodi:cx="69.272751"
       sodipodi:type="arc"
       id="path4501"
       style="fill:#2c5aa0;fill-opacity:1;stroke:none;stroke-width:0.12597656;stroke-linecap:square;stroke-linejoin:round;stroke-miterlimit:4;stroke-dasharray:none;stroke-opacity:1" />
    <path
       style="fill:#000000;fill-opacity:1;stroke:none;stroke-width:0.08398438;stroke-linecap:square;stroke-linejoin:round;stroke-miterlimit:4;stroke-dasharray:none;stroke-opacity:1"
       id="path4503"
       sodipodi:type="arc"
       sodipodi:cx="76.104813"
       sodipodi:cy="209.43118"
       sodipodi:rx="4.9990697"
       sodipodi:ry="4.9990697"
       sodipodi:start="0.32773793"
       sodipodi:end="0.26108729"
       sodipodi:open="true"
       d="m 80.837796,211.04039 a 4.9990697,4.9990697 0 0 1 -6.263111,3.14993 4.9990697,4.9990697 0 0 1 -3.253846,-6.20976 4.9990697,4.9990697 0 0 1 6.154681,-3.35686 4.9990697,4.9990697 0 0 1 3.458943,6.0979" />
    <path
       d="m 116.27609,190.21885 a 9.1649618,9.1649618 0 0 1 -11.48237,5.77487 9.1649618,9.1649618 0 0 1 -5.965386,-11.38456 9.1649618,9.1649618 0 0 1 11.283586,-6.15424 9.1649618,9.1649618 0 0 1 6.34139,11.17947"
       sodipodi:open="true"
       sodipodi:end="0.26108729"
       sodipodi:start="0.32773793"
       sodipodi:ry="9.1649618"
       sodipodi:rx="9.1649618"
       sodipodi:cy="187.26863"
       sodipodi:cx="107.59895"
       sodipodi:type="arc"
       id="path4505"
       style="fill:#668000;fill-opacity:1;stroke:none;stroke-width:0.15397134;stroke-linecap:square;stroke-linejoin:round;stroke-miterlimit:4;stroke-dasharray:none;stroke-opacity:1" />
    <path
       style="fill:#676c53;fill-opacity:1;stroke:none;stroke-width:0.10917968;stroke-linecap:square;stroke-linejoin:round;stroke-miterlimit:4;stroke-dasharray:none;stroke-opacity:1"
       id="path4507"
       sodipodi:type="arc"
       sodipodi:cx="123.59598"
       sodipodi:cy="246.92421"
       sodipodi:rx="6.4987907"
       sodipodi:ry="6.4987907"
       sodipodi:start="0.32773793"
       sodipodi:end="0.26108729"
       sodipodi:open="true"
       d="m 129.74886,249.01618 a 6.4987907,6.4987907 0 0 1 -8.14205,4.09491 6.4987907,6.4987907 0 0 1 -4.23,-8.07269 6.4987907,6.4987907 0 0 1 8.00109,-4.36391 6.4987907,6.4987907 0 0 1 4.49662,7.92726" />
    <path
       d="m 82.895737,252.86243 a 10.164775,10.164775 0 0 1 -12.734993,6.40485 10.164775,10.164775 0 0 1 -6.616153,-12.62651 10.164775,10.164775 0 0 1 12.514517,-6.82562 10.164775,10.164775 0 0 1 7.033185,12.39906"
       sodipodi:open="true"
       sodipodi:end="0.26108729"
       sodipodi:start="0.32773793"
       sodipodi:ry="10.164775"
       sodipodi:rx="10.164775"
       sodipodi:cy="249.59036"
       sodipodi:cx="73.272003"
       sodipodi:type="arc"
       id="path4509"
       style="fill:#ff7f2a;fill-opacity:1;stroke:none;stroke-width:0.17076822;stroke-linecap:square;stroke-linejoin:round;stroke-miterlimit:4;stroke-dasharray:none;stroke-opacity:1" />
    <path
       style="fill:none;stroke:#000000;stroke-width:0.88172573;stroke-linecap:butt;stroke-linejoin:miter;stroke-miterlimit:4;stroke-dasharray:none;stroke-opacity:1"
       d="m 56.960174,212.76047 13.617063,-2.21511"
       id="path4519"
       inkscape:connector-curvature="0"
       sodipodi:nodetypes="cc" />
    <path
       style="fill:none;stroke:#000000;stroke-width:0.88172573;stroke-linecap:butt;stroke-linejoin:miter;stroke-miterlimit:4;stroke-dasharray:none;stroke-opacity:1"
       d="M 73.438633,203.09903 70.772462,188.10182"
       id="path4521"
       inkscape:connector-curvature="0" />
    <path
       style="fill:none;stroke:#000000;stroke-width:0.88172573;stroke-linecap:butt;stroke-linejoin:miter;stroke-miterlimit:4;stroke-dasharray:none;stroke-opacity:1"
       d="m 80.93446,210.7216 20.24656,-15.85674 -24.82381,44.1703"
       id="path4523"
       inkscape:connector-curvature="0"
       sodipodi:nodetypes="ccc" />
    <path
       style="fill:none;stroke:#000000;stroke-width:0.88172573;stroke-linecap:butt;stroke-linejoin:miter;stroke-miterlimit:4;stroke-dasharray:none;stroke-opacity:1"
       d="m 121.09644,239.75888 -10.33141,-42.992"
       id="path4525"
       inkscape:connector-curvature="0" />
    <path
       style="fill:none;stroke:#000000;stroke-width:0.88172573;stroke-linecap:butt;stroke-linejoin:miter;stroke-miterlimit:4;stroke-dasharray:none;stroke-opacity:1"
       d="m 83.092291,252.21422 31.005449,-3.79029"
       id="path4527"
       inkscape:connector-curvature="0" />
    <path
       style="fill:none;stroke:#000000;stroke-width:0.88172573;stroke-linecap:butt;stroke-linejoin:miter;stroke-miterlimit:4;stroke-dasharray:none;stroke-opacity:1"
       d="M 62.440681,243.75813 50.442914,224.76167"
       id="path4529"
       inkscape:connector-curvature="0" />
    <path
       style="fill:none;stroke:#000000;stroke-width:0.88172573;stroke-linecap:butt;stroke-linejoin:miter;stroke-miterlimit:4;stroke-dasharray:none;stroke-opacity:1"
       d="m 55.108712,206.43174 42.958506,-18.1347"
       id="path4531"
       inkscape:connector-curvature="0"
       sodipodi:nodetypes="cc" />
    <path
       style="fill:none;stroke:#000000;stroke-width:0.88172573;stroke-linecap:butt;stroke-linejoin:miter;stroke-miterlimit:4;stroke-dasharray:none;stroke-opacity:1"
       d="M 61.774137,185.10239 49.109828,201.0994"
       id="path4535"
       inkscape:connector-curvature="0" />
    <path
       style="fill:none;stroke:#000000;stroke-width:0.88172573;stroke-linecap:butt;stroke-linejoin:miter;stroke-miterlimit:4;stroke-dasharray:none;stroke-opacity:1"
       d="m 80.837793,211.04039 37.195087,30.3681"
       id="path4537"
       inkscape:connector-curvature="0"
       sodipodi:nodetypes="cc" />
    <path
       style="fill:none;stroke:#000000;stroke-width:0.88172573;stroke-linecap:butt;stroke-linejoin:miter;stroke-miterlimit:4;stroke-dasharray:none;stroke-opacity:1"
       d="M 76.233037,216.20116 74.94326,238.7995"
       id="path4539"
       inkscape:connector-curvature="0"
       sodipodi:nodetypes="cc" />
    <path
       style="fill:none;stroke:#000000;stroke-width:0.88172573;stroke-linecap:butt;stroke-linejoin:miter;stroke-miterlimit:4;stroke-dasharray:none;stroke-opacity:1"
       d="m 76.517222,181.53902 21.549996,4.16579"
       id="path4541"
       inkscape:connector-curvature="0"
       sodipodi:nodetypes="cc" />
    <path
       d="m 237.6356,198.84321 a 10.831318,10.831318 0 0 1 -13.57008,6.82484 10.831318,10.831318 0 0 1 -7.05,-13.45448 10.831318,10.831318 0 0 1 13.33514,-7.27319 10.831318,10.831318 0 0 1 7.49438,13.2121"
       sodipodi:open="true"
       sodipodi:end="0.26108729"
       sodipodi:start="0.32773793"
       sodipodi:ry="10.831318"
       sodipodi:rx="10.831318"
       sodipodi:cy="195.35658"
       sodipodi:cx="227.3808"
       sodipodi:type="arc"
       id="path4543"
       style="fill:#aa0000;fill-opacity:1;stroke:none;stroke-width:0.18196614;stroke-linecap:square;stroke-linejoin:round;stroke-miterlimit:4;stroke-dasharray:none;stroke-opacity:1" />
    <path
       style="fill:#2c5aa0;fill-opacity:1;stroke:none;stroke-width:0.12597656;stroke-linecap:square;stroke-linejoin:round;stroke-miterlimit:4;stroke-dasharray:none;stroke-opacity:1"
       id="path4545"
       sodipodi:type="arc"
       sodipodi:cx="227.3808"
       sodipodi:cy="152.50551"
       sodipodi:rx="7.4986048"
       sodipodi:ry="7.4986048"
       sodipodi:start="0.32773793"
       sodipodi:end="0.26108729"
       sodipodi:open="true"
       d="m 234.48027,154.91933 a 7.4986048,7.4986048 0 0 1 -9.39466,4.72489 7.4986048,7.4986048 0 0 1 -4.88077,-9.31464 7.4986048,7.4986048 0 0 1 9.23202,-5.03529 7.4986048,7.4986048 0 0 1 5.18841,9.14684" />
    <path
       d="m 232.11378,173.80921 a 4.9990697,4.9990697 0 0 1 -6.26311,3.14993 4.9990697,4.9990697 0 0 1 -3.25385,-6.20976 4.9990697,4.9990697 0 0 1 6.15469,-3.35686 4.9990697,4.9990697 0 0 1 3.45894,6.09789"
       sodipodi:open="true"
       sodipodi:end="0.26108729"
       sodipodi:start="0.32773793"
       sodipodi:ry="4.9990697"
       sodipodi:rx="4.9990697"
       sodipodi:cy="172.2"
       sodipodi:cx="227.3808"
       sodipodi:type="arc"
       id="path4547"
       style="fill:#000000;fill-opacity:1;stroke:none;stroke-width:0.08398438;stroke-linecap:square;stroke-linejoin:round;stroke-miterlimit:4;stroke-dasharray:none;stroke-opacity:1" />
    <path
       style="fill:#668000;fill-opacity:1;stroke:none;stroke-width:0.15397134;stroke-linecap:square;stroke-linejoin:round;stroke-miterlimit:4;stroke-dasharray:none;stroke-opacity:1"
       id="path4549"
       sodipodi:type="arc"
       sodipodi:cx="227.3808"
       sodipodi:cy="254.19846"
       sodipodi:rx="9.1649618"
       sodipodi:ry="9.1649618"
       sodipodi:start="0.32773793"
       sodipodi:end="0.26108729"
       sodipodi:open="true"
       d="m 236.05794,257.14868 a 9.1649618,9.1649618 0 0 1 -11.48238,5.77487 9.1649618,9.1649618 0 0 1 -5.96538,-11.38456 9.1649618,9.1649618 0 0 1 11.28358,-6.15425 9.1649618,9.1649618 0 0 1 6.3414,11.17948" />
    <path
       style="fill:#ff7f2a;fill-opacity:1;stroke:none;stroke-width:0.17076822;stroke-linecap:square;stroke-linejoin:round;stroke-miterlimit:4;stroke-dasharray:none;stroke-opacity:1"
       id="path4551"
       sodipodi:type="arc"
       sodipodi:cx="227.3808"
       sodipodi:cy="224.14211"
       sodipodi:rx="10.164775"
       sodipodi:ry="10.164775"
       sodipodi:start="0.32773793"
       sodipodi:end="0.26108729"
       sodipodi:open="true"
       d="m 237.00453,227.41417 a 10.164775,10.164775 0 0 1 -12.73499,6.40485 10.164775,10.164775 0 0 1 -6.61615,-12.62651 10.164775,10.164775 0 0 1 12.51451,-6.82561 10.164775,10.164775 0 0 1 7.03319,12.39905" />
    <path
       style="fill:none;stroke:#000000;stroke-width:0.88172573;stroke-linecap:butt;stroke-linejoin:miter;stroke-miterlimit:4;stroke-dasharray:none;stroke-opacity:1"
       d="m 227.3808,161.5473 v 4.47751"
       id="path4555"
       inkscape:connector-curvature="0" />
    <path
       inkscape:connector-curvature="0"
       id="path4557"
       d="m 227.3808,180.2105 v 3.06356"
       style="fill:none;stroke:#000000;stroke-width:0.72933716;stroke-linecap:butt;stroke-linejoin:miter;stroke-miterlimit:4;stroke-dasharray:none;stroke-opacity:1" />
    <path
       style="fill:none;stroke:#000000;stroke-width:0.6708926;stroke-linecap:butt;stroke-linejoin:miter;stroke-miterlimit:4;stroke-dasharray:none;stroke-opacity:1"
       d="m 227.3808,208.6719 v 2.59224"
       id="path4559"
       inkscape:connector-curvature="0" />
    <path
       inkscape:connector-curvature="0"
       id="path4561"
       d="m 227.3808,237.59987 v 4.47751"
       style="fill:none;stroke:#000000;stroke-width:0.88172573;stroke-linecap:butt;stroke-linejoin:miter;stroke-miterlimit:4;stroke-dasharray:none;stroke-opacity:1" />
    <path
       d="m 233.53368,281.06857 a 6.4987907,6.4987907 0 0 1 -8.14205,4.0949 6.4987907,6.4987907 0 0 1 -4.23,-8.07268 6.4987907,6.4987907 0 0 1 8.00109,-4.36392 6.4987907,6.4987907 0 0 1 4.49662,7.92726"
       sodipodi:open="true"
       sodipodi:end="0.26108729"
       sodipodi:start="0.32773793"
       sodipodi:ry="6.4987907"
       sodipodi:rx="6.4987907"
       sodipodi:cy="278.97659"
       sodipodi:cx="227.3808"
       sodipodi:type="arc"
       id="path4563"
       style="fill:#676c53;fill-opacity:1;stroke:none;stroke-width:0.10917968;stroke-linecap:square;stroke-linejoin:round;stroke-miterlimit:4;stroke-dasharray:none;stroke-opacity:1" />
    <path
       style="fill:none;stroke:#000000;stroke-width:0.88172573;stroke-linecap:butt;stroke-linejoin:miter;stroke-miterlimit:4;stroke-dasharray:none;stroke-opacity:1"
       d="m 227.3808,266.06126 v 4.47751"
       id="path4565"
       inkscape:connector-curvature="0" />
  </g>
</svg>
